<?xml version="1.0" encoding="utf-8" standalone="no"?>
<!DOCTYPE svg PUBLIC "-//W3C//DTD SVG 1.1//EN"
  "http://www.w3.org/Graphics/SVG/1.1/DTD/svg11.dtd">
<svg xmlns:xlink="http://www.w3.org/1999/xlink" width="872.39952pt" height="440.39952pt" viewBox="0 0 872.39952 440.39952" xmlns="http://www.w3.org/2000/svg" version="1.1">
 <metadata>
  <rdf:RDF xmlns:dc="http://purl.org/dc/elements/1.1/" xmlns:cc="http://creativecommons.org/ns#" xmlns:rdf="http://www.w3.org/1999/02/22-rdf-syntax-ns#">
   <cc:Work>
    <dc:type rdf:resource="http://purl.org/dc/dcmitype/StillImage"/>
    <dc:date>2023-06-21T10:48:38.835885</dc:date>
    <dc:format>image/svg+xml</dc:format>
    <dc:creator>
     <cc:Agent>
      <dc:title>Matplotlib v3.5.3, https://matplotlib.org/</dc:title>
     </cc:Agent>
    </dc:creator>
   </cc:Work>
  </rdf:RDF>
 </metadata>
 <defs>
  <style type="text/css">*{stroke-linejoin: round; stroke-linecap: butt}</style>
 </defs>
 <g id="figure_1">
  <g id="patch_1">
   <path d="M 0 440.39952 
L 872.39952 440.39952 
L 872.39952 0 
L 0 0 
z
" style="fill: #ffffff"/>
  </g>
  <g id="axes_1">
   <g id="patch_2">
    <path d="M 53.328125 402.84327 
L 819.071395 402.84327 
L 819.071395 22.318125 
L 53.328125 22.318125 
z
" style="fill: #ffffff"/>
   </g>
   <g id="matplotlib.axis_1">
    <g id="xtick_1">
     <g id="line2d_1">
      <defs>
       <path id="m80abd10554" d="M 0 0 
L 0 3.5 
" style="stroke: #000000; stroke-width: 0.8"/>
      </defs>
      <g>
       <use xlink:href="#m80abd10554" x="112.231453" y="402.84327" style="stroke: #000000; stroke-width: 0.8"/>
      </g>
     </g>
     <g id="text_1">
      <!-- 2011 -->
      <g transform="translate(99.506453 417.441707)scale(0.1 -0.1)">
       <defs>
        <path id="DejaVuSans-32" d="M 1228 531 
L 3431 531 
L 3431 0 
L 469 0 
L 469 531 
Q 828 903 1448 1529 
Q 2069 2156 2228 2338 
Q 2531 2678 2651 2914 
Q 2772 3150 2772 3378 
Q 2772 3750 2511 3984 
Q 2250 4219 1831 4219 
Q 1534 4219 1204 4116 
Q 875 4013 500 3803 
L 500 4441 
Q 881 4594 1212 4672 
Q 1544 4750 1819 4750 
Q 2544 4750 2975 4387 
Q 3406 4025 3406 3419 
Q 3406 3131 3298 2873 
Q 3191 2616 2906 2266 
Q 2828 2175 2409 1742 
Q 1991 1309 1228 531 
z
" transform="scale(0.015625)"/>
        <path id="DejaVuSans-30" d="M 2034 4250 
Q 1547 4250 1301 3770 
Q 1056 3291 1056 2328 
Q 1056 1369 1301 889 
Q 1547 409 2034 409 
Q 2525 409 2770 889 
Q 3016 1369 3016 2328 
Q 3016 3291 2770 3770 
Q 2525 4250 2034 4250 
z
M 2034 4750 
Q 2819 4750 3233 4129 
Q 3647 3509 3647 2328 
Q 3647 1150 3233 529 
Q 2819 -91 2034 -91 
Q 1250 -91 836 529 
Q 422 1150 422 2328 
Q 422 3509 836 4129 
Q 1250 4750 2034 4750 
z
" transform="scale(0.015625)"/>
        <path id="DejaVuSans-31" d="M 794 531 
L 1825 531 
L 1825 4091 
L 703 3866 
L 703 4441 
L 1819 4666 
L 2450 4666 
L 2450 531 
L 3481 531 
L 3481 0 
L 794 0 
L 794 531 
z
" transform="scale(0.015625)"/>
       </defs>
       <use xlink:href="#DejaVuSans-32"/>
       <use xlink:href="#DejaVuSans-30" x="63.623047"/>
       <use xlink:href="#DejaVuSans-31" x="127.246094"/>
       <use xlink:href="#DejaVuSans-31" x="190.869141"/>
      </g>
     </g>
    </g>
    <g id="xtick_2">
     <g id="line2d_2">
      <g>
       <use xlink:href="#m80abd10554" x="230.03811" y="402.84327" style="stroke: #000000; stroke-width: 0.8"/>
      </g>
     </g>
     <g id="text_2">
      <!-- 2013 -->
      <g transform="translate(217.31311 417.441707)scale(0.1 -0.1)">
       <defs>
        <path id="DejaVuSans-33" d="M 2597 2516 
Q 3050 2419 3304 2112 
Q 3559 1806 3559 1356 
Q 3559 666 3084 287 
Q 2609 -91 1734 -91 
Q 1441 -91 1130 -33 
Q 819 25 488 141 
L 488 750 
Q 750 597 1062 519 
Q 1375 441 1716 441 
Q 2309 441 2620 675 
Q 2931 909 2931 1356 
Q 2931 1769 2642 2001 
Q 2353 2234 1838 2234 
L 1294 2234 
L 1294 2753 
L 1863 2753 
Q 2328 2753 2575 2939 
Q 2822 3125 2822 3475 
Q 2822 3834 2567 4026 
Q 2313 4219 1838 4219 
Q 1578 4219 1281 4162 
Q 984 4106 628 3988 
L 628 4550 
Q 988 4650 1302 4700 
Q 1616 4750 1894 4750 
Q 2613 4750 3031 4423 
Q 3450 4097 3450 3541 
Q 3450 3153 3228 2886 
Q 3006 2619 2597 2516 
z
" transform="scale(0.015625)"/>
       </defs>
       <use xlink:href="#DejaVuSans-32"/>
       <use xlink:href="#DejaVuSans-30" x="63.623047"/>
       <use xlink:href="#DejaVuSans-31" x="127.246094"/>
       <use xlink:href="#DejaVuSans-33" x="190.869141"/>
      </g>
     </g>
    </g>
    <g id="xtick_3">
     <g id="line2d_3">
      <g>
       <use xlink:href="#m80abd10554" x="347.844767" y="402.84327" style="stroke: #000000; stroke-width: 0.8"/>
      </g>
     </g>
     <g id="text_3">
      <!-- 2015 -->
      <g transform="translate(335.119767 417.441707)scale(0.1 -0.1)">
       <defs>
        <path id="DejaVuSans-35" d="M 691 4666 
L 3169 4666 
L 3169 4134 
L 1269 4134 
L 1269 2991 
Q 1406 3038 1543 3061 
Q 1681 3084 1819 3084 
Q 2600 3084 3056 2656 
Q 3513 2228 3513 1497 
Q 3513 744 3044 326 
Q 2575 -91 1722 -91 
Q 1428 -91 1123 -41 
Q 819 9 494 109 
L 494 744 
Q 775 591 1075 516 
Q 1375 441 1709 441 
Q 2250 441 2565 725 
Q 2881 1009 2881 1497 
Q 2881 1984 2565 2268 
Q 2250 2553 1709 2553 
Q 1456 2553 1204 2497 
Q 953 2441 691 2322 
L 691 4666 
z
" transform="scale(0.015625)"/>
       </defs>
       <use xlink:href="#DejaVuSans-32"/>
       <use xlink:href="#DejaVuSans-30" x="63.623047"/>
       <use xlink:href="#DejaVuSans-31" x="127.246094"/>
       <use xlink:href="#DejaVuSans-35" x="190.869141"/>
      </g>
     </g>
    </g>
    <g id="xtick_4">
     <g id="line2d_4">
      <g>
       <use xlink:href="#m80abd10554" x="465.651424" y="402.84327" style="stroke: #000000; stroke-width: 0.8"/>
      </g>
     </g>
     <g id="text_4">
      <!-- 2017 -->
      <g transform="translate(452.926424 417.441707)scale(0.1 -0.1)">
       <defs>
        <path id="DejaVuSans-37" d="M 525 4666 
L 3525 4666 
L 3525 4397 
L 1831 0 
L 1172 0 
L 2766 4134 
L 525 4134 
L 525 4666 
z
" transform="scale(0.015625)"/>
       </defs>
       <use xlink:href="#DejaVuSans-32"/>
       <use xlink:href="#DejaVuSans-30" x="63.623047"/>
       <use xlink:href="#DejaVuSans-31" x="127.246094"/>
       <use xlink:href="#DejaVuSans-37" x="190.869141"/>
      </g>
     </g>
    </g>
    <g id="xtick_5">
     <g id="line2d_5">
      <g>
       <use xlink:href="#m80abd10554" x="583.458081" y="402.84327" style="stroke: #000000; stroke-width: 0.8"/>
      </g>
     </g>
     <g id="text_5">
      <!-- 2019 -->
      <g transform="translate(570.733081 417.441707)scale(0.1 -0.1)">
       <defs>
        <path id="DejaVuSans-39" d="M 703 97 
L 703 672 
Q 941 559 1184 500 
Q 1428 441 1663 441 
Q 2288 441 2617 861 
Q 2947 1281 2994 2138 
Q 2813 1869 2534 1725 
Q 2256 1581 1919 1581 
Q 1219 1581 811 2004 
Q 403 2428 403 3163 
Q 403 3881 828 4315 
Q 1253 4750 1959 4750 
Q 2769 4750 3195 4129 
Q 3622 3509 3622 2328 
Q 3622 1225 3098 567 
Q 2575 -91 1691 -91 
Q 1453 -91 1209 -44 
Q 966 3 703 97 
z
M 1959 2075 
Q 2384 2075 2632 2365 
Q 2881 2656 2881 3163 
Q 2881 3666 2632 3958 
Q 2384 4250 1959 4250 
Q 1534 4250 1286 3958 
Q 1038 3666 1038 3163 
Q 1038 2656 1286 2365 
Q 1534 2075 1959 2075 
z
" transform="scale(0.015625)"/>
       </defs>
       <use xlink:href="#DejaVuSans-32"/>
       <use xlink:href="#DejaVuSans-30" x="63.623047"/>
       <use xlink:href="#DejaVuSans-31" x="127.246094"/>
       <use xlink:href="#DejaVuSans-39" x="190.869141"/>
      </g>
     </g>
    </g>
    <g id="xtick_6">
     <g id="line2d_6">
      <g>
       <use xlink:href="#m80abd10554" x="701.264738" y="402.84327" style="stroke: #000000; stroke-width: 0.8"/>
      </g>
     </g>
     <g id="text_6">
      <!-- 2021 -->
      <g transform="translate(688.539738 417.441707)scale(0.1 -0.1)">
       <use xlink:href="#DejaVuSans-32"/>
       <use xlink:href="#DejaVuSans-30" x="63.623047"/>
       <use xlink:href="#DejaVuSans-32" x="127.246094"/>
       <use xlink:href="#DejaVuSans-31" x="190.869141"/>
      </g>
     </g>
    </g>
    <g id="xtick_7">
     <g id="line2d_7">
      <g>
       <use xlink:href="#m80abd10554" x="819.071395" y="402.84327" style="stroke: #000000; stroke-width: 0.8"/>
      </g>
     </g>
     <g id="text_7">
      <!-- 2023 -->
      <g transform="translate(806.346395 417.441707)scale(0.1 -0.1)">
       <use xlink:href="#DejaVuSans-32"/>
       <use xlink:href="#DejaVuSans-30" x="63.623047"/>
       <use xlink:href="#DejaVuSans-32" x="127.246094"/>
       <use xlink:href="#DejaVuSans-33" x="190.869141"/>
      </g>
     </g>
    </g>
    <g id="xtick_8">
     <g id="line2d_8">
      <defs>
       <path id="m9753b35832" d="M 0 0 
L 0 2 
" style="stroke: #000000; stroke-width: 0.6"/>
      </defs>
      <g>
       <use xlink:href="#m9753b35832" x="53.328125" y="402.84327" style="stroke: #000000; stroke-width: 0.6"/>
      </g>
     </g>
    </g>
    <g id="xtick_9">
     <g id="line2d_9">
      <g>
       <use xlink:href="#m9753b35832" x="171.134782" y="402.84327" style="stroke: #000000; stroke-width: 0.6"/>
      </g>
     </g>
    </g>
    <g id="xtick_10">
     <g id="line2d_10">
      <g>
       <use xlink:href="#m9753b35832" x="288.941439" y="402.84327" style="stroke: #000000; stroke-width: 0.6"/>
      </g>
     </g>
    </g>
    <g id="xtick_11">
     <g id="line2d_11">
      <g>
       <use xlink:href="#m9753b35832" x="406.748096" y="402.84327" style="stroke: #000000; stroke-width: 0.6"/>
      </g>
     </g>
    </g>
    <g id="xtick_12">
     <g id="line2d_12">
      <g>
       <use xlink:href="#m9753b35832" x="524.554753" y="402.84327" style="stroke: #000000; stroke-width: 0.6"/>
      </g>
     </g>
    </g>
    <g id="xtick_13">
     <g id="line2d_13">
      <g>
       <use xlink:href="#m9753b35832" x="642.36141" y="402.84327" style="stroke: #000000; stroke-width: 0.6"/>
      </g>
     </g>
    </g>
    <g id="xtick_14">
     <g id="line2d_14">
      <g>
       <use xlink:href="#m9753b35832" x="760.168067" y="402.84327" style="stroke: #000000; stroke-width: 0.6"/>
      </g>
     </g>
    </g>
    <g id="text_8">
     <!-- Time -->
     <g transform="translate(423.966166 431.119832)scale(0.1 -0.1)">
      <defs>
       <path id="DejaVuSans-54" d="M -19 4666 
L 3928 4666 
L 3928 4134 
L 2272 4134 
L 2272 0 
L 1638 0 
L 1638 4134 
L -19 4134 
L -19 4666 
z
" transform="scale(0.015625)"/>
       <path id="DejaVuSans-69" d="M 603 3500 
L 1178 3500 
L 1178 0 
L 603 0 
L 603 3500 
z
M 603 4863 
L 1178 4863 
L 1178 4134 
L 603 4134 
L 603 4863 
z
" transform="scale(0.015625)"/>
       <path id="DejaVuSans-6d" d="M 3328 2828 
Q 3544 3216 3844 3400 
Q 4144 3584 4550 3584 
Q 5097 3584 5394 3201 
Q 5691 2819 5691 2113 
L 5691 0 
L 5113 0 
L 5113 2094 
Q 5113 2597 4934 2840 
Q 4756 3084 4391 3084 
Q 3944 3084 3684 2787 
Q 3425 2491 3425 1978 
L 3425 0 
L 2847 0 
L 2847 2094 
Q 2847 2600 2669 2842 
Q 2491 3084 2119 3084 
Q 1678 3084 1418 2786 
Q 1159 2488 1159 1978 
L 1159 0 
L 581 0 
L 581 3500 
L 1159 3500 
L 1159 2956 
Q 1356 3278 1631 3431 
Q 1906 3584 2284 3584 
Q 2666 3584 2933 3390 
Q 3200 3197 3328 2828 
z
" transform="scale(0.015625)"/>
       <path id="DejaVuSans-65" d="M 3597 1894 
L 3597 1613 
L 953 1613 
Q 991 1019 1311 708 
Q 1631 397 2203 397 
Q 2534 397 2845 478 
Q 3156 559 3463 722 
L 3463 178 
Q 3153 47 2828 -22 
Q 2503 -91 2169 -91 
Q 1331 -91 842 396 
Q 353 884 353 1716 
Q 353 2575 817 3079 
Q 1281 3584 2069 3584 
Q 2775 3584 3186 3129 
Q 3597 2675 3597 1894 
z
M 3022 2063 
Q 3016 2534 2758 2815 
Q 2500 3097 2075 3097 
Q 1594 3097 1305 2825 
Q 1016 2553 972 2059 
L 3022 2063 
z
" transform="scale(0.015625)"/>
      </defs>
      <use xlink:href="#DejaVuSans-54"/>
      <use xlink:href="#DejaVuSans-69" x="57.958984"/>
      <use xlink:href="#DejaVuSans-6d" x="85.742188"/>
      <use xlink:href="#DejaVuSans-65" x="183.154297"/>
     </g>
    </g>
   </g>
   <g id="matplotlib.axis_2">
    <g id="ytick_1">
     <g id="line2d_15">
      <defs>
       <path id="m87c6709d83" d="M 0 0 
L -3.5 0 
" style="stroke: #000000; stroke-width: 0.8"/>
      </defs>
      <g>
       <use xlink:href="#m87c6709d83" x="53.328125" y="390.295032" style="stroke: #000000; stroke-width: 0.8"/>
      </g>
     </g>
     <g id="text_9">
      <!-- 0 -->
      <g transform="translate(39.965625 394.094251)scale(0.1 -0.1)">
       <use xlink:href="#DejaVuSans-30"/>
      </g>
     </g>
    </g>
    <g id="ytick_2">
     <g id="line2d_16">
      <g>
       <use xlink:href="#m87c6709d83" x="53.328125" y="320.466217" style="stroke: #000000; stroke-width: 0.8"/>
      </g>
     </g>
     <g id="text_10">
      <!-- 500 -->
      <g transform="translate(27.240625 324.265436)scale(0.1 -0.1)">
       <use xlink:href="#DejaVuSans-35"/>
       <use xlink:href="#DejaVuSans-30" x="63.623047"/>
       <use xlink:href="#DejaVuSans-30" x="127.246094"/>
      </g>
     </g>
    </g>
    <g id="ytick_3">
     <g id="line2d_17">
      <g>
       <use xlink:href="#m87c6709d83" x="53.328125" y="250.637402" style="stroke: #000000; stroke-width: 0.8"/>
      </g>
     </g>
     <g id="text_11">
      <!-- 1000 -->
      <g transform="translate(20.878125 254.43662)scale(0.1 -0.1)">
       <use xlink:href="#DejaVuSans-31"/>
       <use xlink:href="#DejaVuSans-30" x="63.623047"/>
       <use xlink:href="#DejaVuSans-30" x="127.246094"/>
       <use xlink:href="#DejaVuSans-30" x="190.869141"/>
      </g>
     </g>
    </g>
    <g id="ytick_4">
     <g id="line2d_18">
      <g>
       <use xlink:href="#m87c6709d83" x="53.328125" y="180.808587" style="stroke: #000000; stroke-width: 0.8"/>
      </g>
     </g>
     <g id="text_12">
      <!-- 1500 -->
      <g transform="translate(20.878125 184.607805)scale(0.1 -0.1)">
       <use xlink:href="#DejaVuSans-31"/>
       <use xlink:href="#DejaVuSans-35" x="63.623047"/>
       <use xlink:href="#DejaVuSans-30" x="127.246094"/>
       <use xlink:href="#DejaVuSans-30" x="190.869141"/>
      </g>
     </g>
    </g>
    <g id="ytick_5">
     <g id="line2d_19">
      <g>
       <use xlink:href="#m87c6709d83" x="53.328125" y="110.979772" style="stroke: #000000; stroke-width: 0.8"/>
      </g>
     </g>
     <g id="text_13">
      <!-- 2000 -->
      <g transform="translate(20.878125 114.77899)scale(0.1 -0.1)">
       <use xlink:href="#DejaVuSans-32"/>
       <use xlink:href="#DejaVuSans-30" x="63.623047"/>
       <use xlink:href="#DejaVuSans-30" x="127.246094"/>
       <use xlink:href="#DejaVuSans-30" x="190.869141"/>
      </g>
     </g>
    </g>
    <g id="ytick_6">
     <g id="line2d_20">
      <g>
       <use xlink:href="#m87c6709d83" x="53.328125" y="41.150956" style="stroke: #000000; stroke-width: 0.8"/>
      </g>
     </g>
     <g id="text_14">
      <!-- 2500 -->
      <g transform="translate(20.878125 44.950175)scale(0.1 -0.1)">
       <use xlink:href="#DejaVuSans-32"/>
       <use xlink:href="#DejaVuSans-35" x="63.623047"/>
       <use xlink:href="#DejaVuSans-30" x="127.246094"/>
       <use xlink:href="#DejaVuSans-30" x="190.869141"/>
      </g>
     </g>
    </g>
    <g id="text_15">
     <!-- Monthly tweets -->
     <g transform="translate(14.798438 250.956479)rotate(-90)scale(0.1 -0.1)">
      <defs>
       <path id="DejaVuSans-4d" d="M 628 4666 
L 1569 4666 
L 2759 1491 
L 3956 4666 
L 4897 4666 
L 4897 0 
L 4281 0 
L 4281 4097 
L 3078 897 
L 2444 897 
L 1241 4097 
L 1241 0 
L 628 0 
L 628 4666 
z
" transform="scale(0.015625)"/>
       <path id="DejaVuSans-6f" d="M 1959 3097 
Q 1497 3097 1228 2736 
Q 959 2375 959 1747 
Q 959 1119 1226 758 
Q 1494 397 1959 397 
Q 2419 397 2687 759 
Q 2956 1122 2956 1747 
Q 2956 2369 2687 2733 
Q 2419 3097 1959 3097 
z
M 1959 3584 
Q 2709 3584 3137 3096 
Q 3566 2609 3566 1747 
Q 3566 888 3137 398 
Q 2709 -91 1959 -91 
Q 1206 -91 779 398 
Q 353 888 353 1747 
Q 353 2609 779 3096 
Q 1206 3584 1959 3584 
z
" transform="scale(0.015625)"/>
       <path id="DejaVuSans-6e" d="M 3513 2113 
L 3513 0 
L 2938 0 
L 2938 2094 
Q 2938 2591 2744 2837 
Q 2550 3084 2163 3084 
Q 1697 3084 1428 2787 
Q 1159 2491 1159 1978 
L 1159 0 
L 581 0 
L 581 3500 
L 1159 3500 
L 1159 2956 
Q 1366 3272 1645 3428 
Q 1925 3584 2291 3584 
Q 2894 3584 3203 3211 
Q 3513 2838 3513 2113 
z
" transform="scale(0.015625)"/>
       <path id="DejaVuSans-74" d="M 1172 4494 
L 1172 3500 
L 2356 3500 
L 2356 3053 
L 1172 3053 
L 1172 1153 
Q 1172 725 1289 603 
Q 1406 481 1766 481 
L 2356 481 
L 2356 0 
L 1766 0 
Q 1100 0 847 248 
Q 594 497 594 1153 
L 594 3053 
L 172 3053 
L 172 3500 
L 594 3500 
L 594 4494 
L 1172 4494 
z
" transform="scale(0.015625)"/>
       <path id="DejaVuSans-68" d="M 3513 2113 
L 3513 0 
L 2938 0 
L 2938 2094 
Q 2938 2591 2744 2837 
Q 2550 3084 2163 3084 
Q 1697 3084 1428 2787 
Q 1159 2491 1159 1978 
L 1159 0 
L 581 0 
L 581 4863 
L 1159 4863 
L 1159 2956 
Q 1366 3272 1645 3428 
Q 1925 3584 2291 3584 
Q 2894 3584 3203 3211 
Q 3513 2838 3513 2113 
z
" transform="scale(0.015625)"/>
       <path id="DejaVuSans-6c" d="M 603 4863 
L 1178 4863 
L 1178 0 
L 603 0 
L 603 4863 
z
" transform="scale(0.015625)"/>
       <path id="DejaVuSans-79" d="M 2059 -325 
Q 1816 -950 1584 -1140 
Q 1353 -1331 966 -1331 
L 506 -1331 
L 506 -850 
L 844 -850 
Q 1081 -850 1212 -737 
Q 1344 -625 1503 -206 
L 1606 56 
L 191 3500 
L 800 3500 
L 1894 763 
L 2988 3500 
L 3597 3500 
L 2059 -325 
z
" transform="scale(0.015625)"/>
       <path id="DejaVuSans-20" transform="scale(0.015625)"/>
       <path id="DejaVuSans-77" d="M 269 3500 
L 844 3500 
L 1563 769 
L 2278 3500 
L 2956 3500 
L 3675 769 
L 4391 3500 
L 4966 3500 
L 4050 0 
L 3372 0 
L 2619 2869 
L 1863 0 
L 1184 0 
L 269 3500 
z
" transform="scale(0.015625)"/>
       <path id="DejaVuSans-73" d="M 2834 3397 
L 2834 2853 
Q 2591 2978 2328 3040 
Q 2066 3103 1784 3103 
Q 1356 3103 1142 2972 
Q 928 2841 928 2578 
Q 928 2378 1081 2264 
Q 1234 2150 1697 2047 
L 1894 2003 
Q 2506 1872 2764 1633 
Q 3022 1394 3022 966 
Q 3022 478 2636 193 
Q 2250 -91 1575 -91 
Q 1294 -91 989 -36 
Q 684 19 347 128 
L 347 722 
Q 666 556 975 473 
Q 1284 391 1588 391 
Q 1994 391 2212 530 
Q 2431 669 2431 922 
Q 2431 1156 2273 1281 
Q 2116 1406 1581 1522 
L 1381 1569 
Q 847 1681 609 1914 
Q 372 2147 372 2553 
Q 372 3047 722 3315 
Q 1072 3584 1716 3584 
Q 2034 3584 2315 3537 
Q 2597 3491 2834 3397 
z
" transform="scale(0.015625)"/>
      </defs>
      <use xlink:href="#DejaVuSans-4d"/>
      <use xlink:href="#DejaVuSans-6f" x="86.279297"/>
      <use xlink:href="#DejaVuSans-6e" x="147.460938"/>
      <use xlink:href="#DejaVuSans-74" x="210.839844"/>
      <use xlink:href="#DejaVuSans-68" x="250.048828"/>
      <use xlink:href="#DejaVuSans-6c" x="313.427734"/>
      <use xlink:href="#DejaVuSans-79" x="341.210938"/>
      <use xlink:href="#DejaVuSans-20" x="400.390625"/>
      <use xlink:href="#DejaVuSans-74" x="432.177734"/>
      <use xlink:href="#DejaVuSans-77" x="471.386719"/>
      <use xlink:href="#DejaVuSans-65" x="553.173828"/>
      <use xlink:href="#DejaVuSans-65" x="614.697266"/>
      <use xlink:href="#DejaVuSans-74" x="676.220703"/>
      <use xlink:href="#DejaVuSans-73" x="715.429688"/>
     </g>
    </g>
   </g>
   <g id="line2d_21">
    <path d="M 53.328125 384.150096 
L 58.236736 381.636259 
L 63.145346 378.563791 
L 68.053957 382.893178 
L 72.962568 380.518998 
L 77.871179 378.563791 
L 82.779789 379.82071 
L 87.6884 381.775916 
L 92.597011 385.546672 
L 97.505621 380.658655 
L 102.414232 380.100025 
L 107.322843 380.239683 
L 112.231453 383.731123 
L 117.140064 378.563791 
L 122.048675 377.167215 
L 126.957286 383.172493 
L 131.865896 382.75352 
L 136.774507 378.703449 
L 141.683118 381.636259 
L 146.591728 381.356944 
L 151.500339 377.44653 
L 156.40895 378.843106 
L 161.317561 375.770638 
L 166.226171 377.306872 
L 171.134782 361.52556 
L 176.043393 357.475489 
L 180.952003 365.575631 
L 185.860614 362.223848 
L 190.769225 368.787757 
L 195.677835 371.301594 
L 200.586446 375.630981 
L 205.495057 370.603306 
L 210.403668 336.526844 
L 215.312278 362.642821 
L 220.220889 367.670496 
L 225.1295 373.536116 
L 230.03811 359.291038 
L 234.946721 358.173777 
L 239.855332 368.648099 
L 244.763942 359.430696 
L 249.672553 372.279198 
L 254.581164 372.418855 
L 259.489775 372.279198 
L 264.398385 354.123706 
L 269.306996 366.413577 
L 274.215607 373.117143 
L 279.124217 371.999882 
L 284.032828 378.144818 
L 288.941439 361.52556 
L 293.85005 367.670496 
L 298.75866 365.994604 
L 303.667271 366.692892 
L 308.575882 366.553235 
L 313.484492 366.83255 
L 318.393103 371.860225 
L 323.301714 366.692892 
L 328.210324 364.737686 
L 333.118935 350.492607 
L 338.027546 359.291038 
L 342.936157 370.184333 
L 347.844767 362.642821 
L 352.753378 354.682336 
L 357.661989 360.827272 
L 362.570599 376.189611 
L 367.47921 366.27392 
L 372.387821 342.392465 
L 377.296432 380.37934 
L 382.205042 357.196174 
L 387.113653 362.642821 
L 392.022264 360.128984 
L 396.930874 350.492607 
L 401.839485 344.906302 
L 406.748096 356.916858 
L 411.656706 332.756088 
L 416.565317 361.804875 
L 421.473928 343.649383 
L 426.382539 362.642821 
L 431.291149 351.190895 
L 436.19976 379.960367 
L 441.108371 361.52556 
L 446.016981 371.580909 
L 450.925592 362.223848 
L 460.742814 371.580909 
L 465.651424 363.480767 
L 470.560035 342.951095 
L 475.468646 367.251523 
L 480.377256 360.687614 
L 485.285867 365.994604 
L 490.194478 365.715289 
L 495.103088 371.022279 
L 500.011699 361.665218 
L 504.92031 359.710011 
L 509.828921 359.291038 
L 514.737531 349.515004 
L 519.646142 352.866787 
L 524.554753 357.335831 
L 529.463363 351.190895 
L 534.371974 336.526844 
L 539.280585 358.313435 
L 544.189196 351.609868 
L 549.097806 347.001167 
L 554.006417 358.453092 
L 558.915028 333.035404 
L 563.823638 322.980054 
L 568.732249 317.254091 
L 573.64086 277.87064 
L 578.54947 319.628271 
L 583.458081 279.127558 
L 588.366692 259.715148 
L 593.275303 202.176204 
L 598.183913 96.455378 
L 603.092524 134.721569 
L 608.001135 219.354093 
L 612.909745 212.790184 
L 617.818356 131.928416 
L 622.726967 147.989044 
L 627.635577 169.217003 
L 632.544188 223.404164 
L 637.452799 247.006303 
L 642.36141 203.433123 
L 647.27002 258.039256 
L 652.178631 268.653236 
L 657.087242 256.921995 
L 661.995852 221.728272 
L 666.904463 39.614722 
L 671.813074 216.002309 
L 676.721685 286.948386 
L 681.630295 252.033978 
L 686.538906 231.504306 
L 691.447517 232.342252 
L 696.356127 321.862793 
L 701.264738 301.333121 
L 706.173349 254.2685 
L 711.081959 214.885048 
L 715.99057 321.024847 
L 720.899181 276.05509 
L 725.807792 284.015575 
L 730.716402 324.795603 
L 735.625013 243.65452 
L 740.533624 252.033978 
L 745.442234 250.078771 
L 750.350845 276.05509 
L 755.259456 278.149955 
L 760.168067 189.746675 
L 765.076677 217.678201 
L 769.985288 246.58733 
L 774.893899 277.730982 
L 779.802509 222.147245 
L 784.71112 270.329128 
L 789.619731 271.446389 
L 794.528341 167.820427 
L 799.436952 184.300027 
L 804.345563 231.224991 
L 809.254174 276.613721 
L 814.162784 185.137973 
L 814.162784 185.137973 
" clip-path="url(#p95a0667064)" style="fill: none; stroke: #1f77b4; stroke-width: 1.5; stroke-linecap: square"/>
   </g>
   <g id="line2d_22">
    <path d="M 598.183913 402.84327 
L 598.183913 22.318125 
" clip-path="url(#p95a0667064)" style="fill: none; stroke-dasharray: 3.7,1.6; stroke-dashoffset: 0; stroke: #e69f00"/>
   </g>
   <g id="line2d_23">
    <path d="M 622.726967 402.84327 
L 622.726967 22.318125 
" clip-path="url(#p95a0667064)" style="fill: none; stroke-dasharray: 3.7,1.6; stroke-dashoffset: 0; stroke: #000000"/>
   </g>
   <g id="line2d_24">
    <path d="M 666.904463 402.84327 
L 666.904463 22.318125 
" clip-path="url(#p95a0667064)" style="fill: none; stroke-dasharray: 3.7,1.6; stroke-dashoffset: 0; stroke: #cc79a7"/>
   </g>
   <g id="line2d_25">
    <path d="M 740.533624 402.84327 
L 740.533624 22.318125 
" clip-path="url(#p95a0667064)" style="fill: none; stroke-dasharray: 3.7,1.6; stroke-dashoffset: 0; stroke: #56b4e9"/>
   </g>
   <g id="patch_3">
    <path d="M 53.328125 402.84327 
L 53.328125 22.318125 
" style="fill: none; stroke: #000000; stroke-width: 0.8; stroke-linejoin: miter; stroke-linecap: square"/>
   </g>
   <g id="patch_4">
    <path d="M 819.071395 402.84327 
L 819.071395 22.318125 
" style="fill: none; stroke: #000000; stroke-width: 0.8; stroke-linejoin: miter; stroke-linecap: square"/>
   </g>
   <g id="patch_5">
    <path d="M 53.328125 402.84327 
L 819.071395 402.84327 
" style="fill: none; stroke: #000000; stroke-width: 0.8; stroke-linejoin: miter; stroke-linecap: square"/>
   </g>
   <g id="patch_6">
    <path d="M 53.328125 22.318125 
L 819.071395 22.318125 
" style="fill: none; stroke: #000000; stroke-width: 0.8; stroke-linejoin: miter; stroke-linecap: square"/>
   </g>
   <g id="legend_1">
    <g id="patch_7">
     <path d="M 60.328125 103.70875 
L 368.442187 103.70875 
Q 370.442187 103.70875 370.442187 101.70875 
L 370.442187 29.318125 
Q 370.442187 27.318125 368.442187 27.318125 
L 60.328125 27.318125 
Q 58.328125 27.318125 58.328125 29.318125 
L 58.328125 101.70875 
Q 58.328125 103.70875 60.328125 103.70875 
L 60.328125 103.70875 
z
" style="fill: none; opacity: 0"/>
    </g>
    <g id="line2d_26">
     <path d="M 62.328125 35.416562 
L 72.328125 35.416562 
L 82.328125 35.416562 
" style="fill: none; stroke: #1f77b4; stroke-width: 1.5; stroke-linecap: square"/>
    </g>
    <g id="text_16">
     <!-- Monthly tweets -->
     <g transform="translate(90.328125 38.916562)scale(0.1 -0.1)">
      <use xlink:href="#DejaVuSans-4d"/>
      <use xlink:href="#DejaVuSans-6f" x="86.279297"/>
      <use xlink:href="#DejaVuSans-6e" x="147.460938"/>
      <use xlink:href="#DejaVuSans-74" x="210.839844"/>
      <use xlink:href="#DejaVuSans-68" x="250.048828"/>
      <use xlink:href="#DejaVuSans-6c" x="313.427734"/>
      <use xlink:href="#DejaVuSans-79" x="341.210938"/>
      <use xlink:href="#DejaVuSans-20" x="400.390625"/>
      <use xlink:href="#DejaVuSans-74" x="432.177734"/>
      <use xlink:href="#DejaVuSans-77" x="471.386719"/>
      <use xlink:href="#DejaVuSans-65" x="553.173828"/>
      <use xlink:href="#DejaVuSans-65" x="614.697266"/>
      <use xlink:href="#DejaVuSans-74" x="676.220703"/>
      <use xlink:href="#DejaVuSans-73" x="715.429688"/>
     </g>
    </g>
    <g id="line2d_27">
     <path d="M 62.328125 50.094687 
L 72.328125 50.094687 
L 82.328125 50.094687 
" style="fill: none; stroke-dasharray: 3.7,1.6; stroke-dashoffset: 0; stroke: #e69f00"/>
    </g>
    <g id="text_17">
     <!-- NVE present proposed NFWP -->
     <g transform="translate(90.328125 53.594687)scale(0.1 -0.1)">
      <defs>
       <path id="DejaVuSans-4e" d="M 628 4666 
L 1478 4666 
L 3547 763 
L 3547 4666 
L 4159 4666 
L 4159 0 
L 3309 0 
L 1241 3903 
L 1241 0 
L 628 0 
L 628 4666 
z
" transform="scale(0.015625)"/>
       <path id="DejaVuSans-56" d="M 1831 0 
L 50 4666 
L 709 4666 
L 2188 738 
L 3669 4666 
L 4325 4666 
L 2547 0 
L 1831 0 
z
" transform="scale(0.015625)"/>
       <path id="DejaVuSans-45" d="M 628 4666 
L 3578 4666 
L 3578 4134 
L 1259 4134 
L 1259 2753 
L 3481 2753 
L 3481 2222 
L 1259 2222 
L 1259 531 
L 3634 531 
L 3634 0 
L 628 0 
L 628 4666 
z
" transform="scale(0.015625)"/>
       <path id="DejaVuSans-70" d="M 1159 525 
L 1159 -1331 
L 581 -1331 
L 581 3500 
L 1159 3500 
L 1159 2969 
Q 1341 3281 1617 3432 
Q 1894 3584 2278 3584 
Q 2916 3584 3314 3078 
Q 3713 2572 3713 1747 
Q 3713 922 3314 415 
Q 2916 -91 2278 -91 
Q 1894 -91 1617 61 
Q 1341 213 1159 525 
z
M 3116 1747 
Q 3116 2381 2855 2742 
Q 2594 3103 2138 3103 
Q 1681 3103 1420 2742 
Q 1159 2381 1159 1747 
Q 1159 1113 1420 752 
Q 1681 391 2138 391 
Q 2594 391 2855 752 
Q 3116 1113 3116 1747 
z
" transform="scale(0.015625)"/>
       <path id="DejaVuSans-72" d="M 2631 2963 
Q 2534 3019 2420 3045 
Q 2306 3072 2169 3072 
Q 1681 3072 1420 2755 
Q 1159 2438 1159 1844 
L 1159 0 
L 581 0 
L 581 3500 
L 1159 3500 
L 1159 2956 
Q 1341 3275 1631 3429 
Q 1922 3584 2338 3584 
Q 2397 3584 2469 3576 
Q 2541 3569 2628 3553 
L 2631 2963 
z
" transform="scale(0.015625)"/>
       <path id="DejaVuSans-64" d="M 2906 2969 
L 2906 4863 
L 3481 4863 
L 3481 0 
L 2906 0 
L 2906 525 
Q 2725 213 2448 61 
Q 2172 -91 1784 -91 
Q 1150 -91 751 415 
Q 353 922 353 1747 
Q 353 2572 751 3078 
Q 1150 3584 1784 3584 
Q 2172 3584 2448 3432 
Q 2725 3281 2906 2969 
z
M 947 1747 
Q 947 1113 1208 752 
Q 1469 391 1925 391 
Q 2381 391 2643 752 
Q 2906 1113 2906 1747 
Q 2906 2381 2643 2742 
Q 2381 3103 1925 3103 
Q 1469 3103 1208 2742 
Q 947 2381 947 1747 
z
" transform="scale(0.015625)"/>
       <path id="DejaVuSans-46" d="M 628 4666 
L 3309 4666 
L 3309 4134 
L 1259 4134 
L 1259 2759 
L 3109 2759 
L 3109 2228 
L 1259 2228 
L 1259 0 
L 628 0 
L 628 4666 
z
" transform="scale(0.015625)"/>
       <path id="DejaVuSans-57" d="M 213 4666 
L 850 4666 
L 1831 722 
L 2809 4666 
L 3519 4666 
L 4500 722 
L 5478 4666 
L 6119 4666 
L 4947 0 
L 4153 0 
L 3169 4050 
L 2175 0 
L 1381 0 
L 213 4666 
z
" transform="scale(0.015625)"/>
       <path id="DejaVuSans-50" d="M 1259 4147 
L 1259 2394 
L 2053 2394 
Q 2494 2394 2734 2622 
Q 2975 2850 2975 3272 
Q 2975 3691 2734 3919 
Q 2494 4147 2053 4147 
L 1259 4147 
z
M 628 4666 
L 2053 4666 
Q 2838 4666 3239 4311 
Q 3641 3956 3641 3272 
Q 3641 2581 3239 2228 
Q 2838 1875 2053 1875 
L 1259 1875 
L 1259 0 
L 628 0 
L 628 4666 
z
" transform="scale(0.015625)"/>
      </defs>
      <use xlink:href="#DejaVuSans-4e"/>
      <use xlink:href="#DejaVuSans-56" x="74.804688"/>
      <use xlink:href="#DejaVuSans-45" x="143.212891"/>
      <use xlink:href="#DejaVuSans-20" x="206.396484"/>
      <use xlink:href="#DejaVuSans-70" x="238.183594"/>
      <use xlink:href="#DejaVuSans-72" x="301.660156"/>
      <use xlink:href="#DejaVuSans-65" x="340.523438"/>
      <use xlink:href="#DejaVuSans-73" x="402.046875"/>
      <use xlink:href="#DejaVuSans-65" x="454.146484"/>
      <use xlink:href="#DejaVuSans-6e" x="515.669922"/>
      <use xlink:href="#DejaVuSans-74" x="579.048828"/>
      <use xlink:href="#DejaVuSans-20" x="618.257812"/>
      <use xlink:href="#DejaVuSans-70" x="650.044922"/>
      <use xlink:href="#DejaVuSans-72" x="713.521484"/>
      <use xlink:href="#DejaVuSans-6f" x="752.384766"/>
      <use xlink:href="#DejaVuSans-70" x="813.566406"/>
      <use xlink:href="#DejaVuSans-6f" x="877.042969"/>
      <use xlink:href="#DejaVuSans-73" x="938.224609"/>
      <use xlink:href="#DejaVuSans-65" x="990.324219"/>
      <use xlink:href="#DejaVuSans-64" x="1051.847656"/>
      <use xlink:href="#DejaVuSans-20" x="1115.324219"/>
      <use xlink:href="#DejaVuSans-4e" x="1147.111328"/>
      <use xlink:href="#DejaVuSans-46" x="1221.916016"/>
      <use xlink:href="#DejaVuSans-57" x="1279.435547"/>
      <use xlink:href="#DejaVuSans-50" x="1378.3125"/>
     </g>
    </g>
    <g id="line2d_28">
     <path d="M 62.328125 64.772812 
L 72.328125 64.772812 
L 82.328125 64.772812 
" style="fill: none; stroke-dasharray: 3.7,1.6; stroke-dashoffset: 0; stroke: #000000"/>
    </g>
    <g id="text_18">
     <!-- Municipal and regional election -->
     <g transform="translate(90.328125 68.272812)scale(0.1 -0.1)">
      <defs>
       <path id="DejaVuSans-75" d="M 544 1381 
L 544 3500 
L 1119 3500 
L 1119 1403 
Q 1119 906 1312 657 
Q 1506 409 1894 409 
Q 2359 409 2629 706 
Q 2900 1003 2900 1516 
L 2900 3500 
L 3475 3500 
L 3475 0 
L 2900 0 
L 2900 538 
Q 2691 219 2414 64 
Q 2138 -91 1772 -91 
Q 1169 -91 856 284 
Q 544 659 544 1381 
z
M 1991 3584 
L 1991 3584 
z
" transform="scale(0.015625)"/>
       <path id="DejaVuSans-63" d="M 3122 3366 
L 3122 2828 
Q 2878 2963 2633 3030 
Q 2388 3097 2138 3097 
Q 1578 3097 1268 2742 
Q 959 2388 959 1747 
Q 959 1106 1268 751 
Q 1578 397 2138 397 
Q 2388 397 2633 464 
Q 2878 531 3122 666 
L 3122 134 
Q 2881 22 2623 -34 
Q 2366 -91 2075 -91 
Q 1284 -91 818 406 
Q 353 903 353 1747 
Q 353 2603 823 3093 
Q 1294 3584 2113 3584 
Q 2378 3584 2631 3529 
Q 2884 3475 3122 3366 
z
" transform="scale(0.015625)"/>
       <path id="DejaVuSans-61" d="M 2194 1759 
Q 1497 1759 1228 1600 
Q 959 1441 959 1056 
Q 959 750 1161 570 
Q 1363 391 1709 391 
Q 2188 391 2477 730 
Q 2766 1069 2766 1631 
L 2766 1759 
L 2194 1759 
z
M 3341 1997 
L 3341 0 
L 2766 0 
L 2766 531 
Q 2569 213 2275 61 
Q 1981 -91 1556 -91 
Q 1019 -91 701 211 
Q 384 513 384 1019 
Q 384 1609 779 1909 
Q 1175 2209 1959 2209 
L 2766 2209 
L 2766 2266 
Q 2766 2663 2505 2880 
Q 2244 3097 1772 3097 
Q 1472 3097 1187 3025 
Q 903 2953 641 2809 
L 641 3341 
Q 956 3463 1253 3523 
Q 1550 3584 1831 3584 
Q 2591 3584 2966 3190 
Q 3341 2797 3341 1997 
z
" transform="scale(0.015625)"/>
       <path id="DejaVuSans-67" d="M 2906 1791 
Q 2906 2416 2648 2759 
Q 2391 3103 1925 3103 
Q 1463 3103 1205 2759 
Q 947 2416 947 1791 
Q 947 1169 1205 825 
Q 1463 481 1925 481 
Q 2391 481 2648 825 
Q 2906 1169 2906 1791 
z
M 3481 434 
Q 3481 -459 3084 -895 
Q 2688 -1331 1869 -1331 
Q 1566 -1331 1297 -1286 
Q 1028 -1241 775 -1147 
L 775 -588 
Q 1028 -725 1275 -790 
Q 1522 -856 1778 -856 
Q 2344 -856 2625 -561 
Q 2906 -266 2906 331 
L 2906 616 
Q 2728 306 2450 153 
Q 2172 0 1784 0 
Q 1141 0 747 490 
Q 353 981 353 1791 
Q 353 2603 747 3093 
Q 1141 3584 1784 3584 
Q 2172 3584 2450 3431 
Q 2728 3278 2906 2969 
L 2906 3500 
L 3481 3500 
L 3481 434 
z
" transform="scale(0.015625)"/>
      </defs>
      <use xlink:href="#DejaVuSans-4d"/>
      <use xlink:href="#DejaVuSans-75" x="86.279297"/>
      <use xlink:href="#DejaVuSans-6e" x="149.658203"/>
      <use xlink:href="#DejaVuSans-69" x="213.037109"/>
      <use xlink:href="#DejaVuSans-63" x="240.820312"/>
      <use xlink:href="#DejaVuSans-69" x="295.800781"/>
      <use xlink:href="#DejaVuSans-70" x="323.583984"/>
      <use xlink:href="#DejaVuSans-61" x="387.060547"/>
      <use xlink:href="#DejaVuSans-6c" x="448.339844"/>
      <use xlink:href="#DejaVuSans-20" x="476.123047"/>
      <use xlink:href="#DejaVuSans-61" x="507.910156"/>
      <use xlink:href="#DejaVuSans-6e" x="569.189453"/>
      <use xlink:href="#DejaVuSans-64" x="632.568359"/>
      <use xlink:href="#DejaVuSans-20" x="696.044922"/>
      <use xlink:href="#DejaVuSans-72" x="727.832031"/>
      <use xlink:href="#DejaVuSans-65" x="766.695312"/>
      <use xlink:href="#DejaVuSans-67" x="828.21875"/>
      <use xlink:href="#DejaVuSans-69" x="891.695312"/>
      <use xlink:href="#DejaVuSans-6f" x="919.478516"/>
      <use xlink:href="#DejaVuSans-6e" x="980.660156"/>
      <use xlink:href="#DejaVuSans-61" x="1044.039062"/>
      <use xlink:href="#DejaVuSans-6c" x="1105.318359"/>
      <use xlink:href="#DejaVuSans-20" x="1133.101562"/>
      <use xlink:href="#DejaVuSans-65" x="1164.888672"/>
      <use xlink:href="#DejaVuSans-6c" x="1226.412109"/>
      <use xlink:href="#DejaVuSans-65" x="1254.195312"/>
      <use xlink:href="#DejaVuSans-63" x="1315.71875"/>
      <use xlink:href="#DejaVuSans-74" x="1370.699219"/>
      <use xlink:href="#DejaVuSans-69" x="1409.908203"/>
      <use xlink:href="#DejaVuSans-6f" x="1437.691406"/>
      <use xlink:href="#DejaVuSans-6e" x="1498.873047"/>
     </g>
    </g>
    <g id="line2d_29">
     <path d="M 62.328125 79.450937 
L 72.328125 79.450937 
L 82.328125 79.450937 
" style="fill: none; stroke-dasharray: 3.7,1.6; stroke-dashoffset: 0; stroke: #cc79a7"/>
    </g>
    <g id="text_19">
     <!-- Meld. St. 28 (2019-2020) - Tighter rules for wind power -->
     <g transform="translate(90.328125 82.950937)scale(0.1 -0.1)">
      <defs>
       <path id="DejaVuSans-2e" d="M 684 794 
L 1344 794 
L 1344 0 
L 684 0 
L 684 794 
z
" transform="scale(0.015625)"/>
       <path id="DejaVuSans-53" d="M 3425 4513 
L 3425 3897 
Q 3066 4069 2747 4153 
Q 2428 4238 2131 4238 
Q 1616 4238 1336 4038 
Q 1056 3838 1056 3469 
Q 1056 3159 1242 3001 
Q 1428 2844 1947 2747 
L 2328 2669 
Q 3034 2534 3370 2195 
Q 3706 1856 3706 1288 
Q 3706 609 3251 259 
Q 2797 -91 1919 -91 
Q 1588 -91 1214 -16 
Q 841 59 441 206 
L 441 856 
Q 825 641 1194 531 
Q 1563 422 1919 422 
Q 2459 422 2753 634 
Q 3047 847 3047 1241 
Q 3047 1584 2836 1778 
Q 2625 1972 2144 2069 
L 1759 2144 
Q 1053 2284 737 2584 
Q 422 2884 422 3419 
Q 422 4038 858 4394 
Q 1294 4750 2059 4750 
Q 2388 4750 2728 4690 
Q 3069 4631 3425 4513 
z
" transform="scale(0.015625)"/>
       <path id="DejaVuSans-38" d="M 2034 2216 
Q 1584 2216 1326 1975 
Q 1069 1734 1069 1313 
Q 1069 891 1326 650 
Q 1584 409 2034 409 
Q 2484 409 2743 651 
Q 3003 894 3003 1313 
Q 3003 1734 2745 1975 
Q 2488 2216 2034 2216 
z
M 1403 2484 
Q 997 2584 770 2862 
Q 544 3141 544 3541 
Q 544 4100 942 4425 
Q 1341 4750 2034 4750 
Q 2731 4750 3128 4425 
Q 3525 4100 3525 3541 
Q 3525 3141 3298 2862 
Q 3072 2584 2669 2484 
Q 3125 2378 3379 2068 
Q 3634 1759 3634 1313 
Q 3634 634 3220 271 
Q 2806 -91 2034 -91 
Q 1263 -91 848 271 
Q 434 634 434 1313 
Q 434 1759 690 2068 
Q 947 2378 1403 2484 
z
M 1172 3481 
Q 1172 3119 1398 2916 
Q 1625 2713 2034 2713 
Q 2441 2713 2670 2916 
Q 2900 3119 2900 3481 
Q 2900 3844 2670 4047 
Q 2441 4250 2034 4250 
Q 1625 4250 1398 4047 
Q 1172 3844 1172 3481 
z
" transform="scale(0.015625)"/>
       <path id="DejaVuSans-28" d="M 1984 4856 
Q 1566 4138 1362 3434 
Q 1159 2731 1159 2009 
Q 1159 1288 1364 580 
Q 1569 -128 1984 -844 
L 1484 -844 
Q 1016 -109 783 600 
Q 550 1309 550 2009 
Q 550 2706 781 3412 
Q 1013 4119 1484 4856 
L 1984 4856 
z
" transform="scale(0.015625)"/>
       <path id="DejaVuSans-2d" d="M 313 2009 
L 1997 2009 
L 1997 1497 
L 313 1497 
L 313 2009 
z
" transform="scale(0.015625)"/>
       <path id="DejaVuSans-29" d="M 513 4856 
L 1013 4856 
Q 1481 4119 1714 3412 
Q 1947 2706 1947 2009 
Q 1947 1309 1714 600 
Q 1481 -109 1013 -844 
L 513 -844 
Q 928 -128 1133 580 
Q 1338 1288 1338 2009 
Q 1338 2731 1133 3434 
Q 928 4138 513 4856 
z
" transform="scale(0.015625)"/>
       <path id="DejaVuSans-66" d="M 2375 4863 
L 2375 4384 
L 1825 4384 
Q 1516 4384 1395 4259 
Q 1275 4134 1275 3809 
L 1275 3500 
L 2222 3500 
L 2222 3053 
L 1275 3053 
L 1275 0 
L 697 0 
L 697 3053 
L 147 3053 
L 147 3500 
L 697 3500 
L 697 3744 
Q 697 4328 969 4595 
Q 1241 4863 1831 4863 
L 2375 4863 
z
" transform="scale(0.015625)"/>
      </defs>
      <use xlink:href="#DejaVuSans-4d"/>
      <use xlink:href="#DejaVuSans-65" x="86.279297"/>
      <use xlink:href="#DejaVuSans-6c" x="147.802734"/>
      <use xlink:href="#DejaVuSans-64" x="175.585938"/>
      <use xlink:href="#DejaVuSans-2e" x="239.0625"/>
      <use xlink:href="#DejaVuSans-20" x="270.849609"/>
      <use xlink:href="#DejaVuSans-53" x="302.636719"/>
      <use xlink:href="#DejaVuSans-74" x="366.113281"/>
      <use xlink:href="#DejaVuSans-2e" x="405.322266"/>
      <use xlink:href="#DejaVuSans-20" x="437.109375"/>
      <use xlink:href="#DejaVuSans-32" x="468.896484"/>
      <use xlink:href="#DejaVuSans-38" x="532.519531"/>
      <use xlink:href="#DejaVuSans-20" x="596.142578"/>
      <use xlink:href="#DejaVuSans-28" x="627.929688"/>
      <use xlink:href="#DejaVuSans-32" x="666.943359"/>
      <use xlink:href="#DejaVuSans-30" x="730.566406"/>
      <use xlink:href="#DejaVuSans-31" x="794.189453"/>
      <use xlink:href="#DejaVuSans-39" x="857.8125"/>
      <use xlink:href="#DejaVuSans-2d" x="921.435547"/>
      <use xlink:href="#DejaVuSans-32" x="957.519531"/>
      <use xlink:href="#DejaVuSans-30" x="1021.142578"/>
      <use xlink:href="#DejaVuSans-32" x="1084.765625"/>
      <use xlink:href="#DejaVuSans-30" x="1148.388672"/>
      <use xlink:href="#DejaVuSans-29" x="1212.011719"/>
      <use xlink:href="#DejaVuSans-20" x="1251.025391"/>
      <use xlink:href="#DejaVuSans-2d" x="1282.8125"/>
      <use xlink:href="#DejaVuSans-20" x="1318.896484"/>
      <use xlink:href="#DejaVuSans-54" x="1350.683594"/>
      <use xlink:href="#DejaVuSans-69" x="1408.642578"/>
      <use xlink:href="#DejaVuSans-67" x="1436.425781"/>
      <use xlink:href="#DejaVuSans-68" x="1499.902344"/>
      <use xlink:href="#DejaVuSans-74" x="1563.28125"/>
      <use xlink:href="#DejaVuSans-65" x="1602.490234"/>
      <use xlink:href="#DejaVuSans-72" x="1664.013672"/>
      <use xlink:href="#DejaVuSans-20" x="1705.126953"/>
      <use xlink:href="#DejaVuSans-72" x="1736.914062"/>
      <use xlink:href="#DejaVuSans-75" x="1778.027344"/>
      <use xlink:href="#DejaVuSans-6c" x="1841.40625"/>
      <use xlink:href="#DejaVuSans-65" x="1869.189453"/>
      <use xlink:href="#DejaVuSans-73" x="1930.712891"/>
      <use xlink:href="#DejaVuSans-20" x="1982.8125"/>
      <use xlink:href="#DejaVuSans-66" x="2014.599609"/>
      <use xlink:href="#DejaVuSans-6f" x="2049.804688"/>
      <use xlink:href="#DejaVuSans-72" x="2110.986328"/>
      <use xlink:href="#DejaVuSans-20" x="2152.099609"/>
      <use xlink:href="#DejaVuSans-77" x="2183.886719"/>
      <use xlink:href="#DejaVuSans-69" x="2265.673828"/>
      <use xlink:href="#DejaVuSans-6e" x="2293.457031"/>
      <use xlink:href="#DejaVuSans-64" x="2356.835938"/>
      <use xlink:href="#DejaVuSans-20" x="2420.3125"/>
      <use xlink:href="#DejaVuSans-70" x="2452.099609"/>
      <use xlink:href="#DejaVuSans-6f" x="2515.576172"/>
      <use xlink:href="#DejaVuSans-77" x="2576.757812"/>
      <use xlink:href="#DejaVuSans-65" x="2658.544922"/>
      <use xlink:href="#DejaVuSans-72" x="2720.068359"/>
     </g>
    </g>
    <g id="line2d_30">
     <path d="M 62.328125 94.129062 
L 72.328125 94.129062 
L 82.328125 94.129062 
" style="fill: none; stroke-dasharray: 3.7,1.6; stroke-dashoffset: 0; stroke: #56b4e9"/>
    </g>
    <g id="text_20">
     <!-- Parliamentary election and Fosen Wind controversy -->
     <g transform="translate(90.328125 97.629062)scale(0.1 -0.1)">
      <defs>
       <path id="DejaVuSans-76" d="M 191 3500 
L 800 3500 
L 1894 563 
L 2988 3500 
L 3597 3500 
L 2284 0 
L 1503 0 
L 191 3500 
z
" transform="scale(0.015625)"/>
      </defs>
      <use xlink:href="#DejaVuSans-50"/>
      <use xlink:href="#DejaVuSans-61" x="55.802734"/>
      <use xlink:href="#DejaVuSans-72" x="117.082031"/>
      <use xlink:href="#DejaVuSans-6c" x="158.195312"/>
      <use xlink:href="#DejaVuSans-69" x="185.978516"/>
      <use xlink:href="#DejaVuSans-61" x="213.761719"/>
      <use xlink:href="#DejaVuSans-6d" x="275.041016"/>
      <use xlink:href="#DejaVuSans-65" x="372.453125"/>
      <use xlink:href="#DejaVuSans-6e" x="433.976562"/>
      <use xlink:href="#DejaVuSans-74" x="497.355469"/>
      <use xlink:href="#DejaVuSans-61" x="536.564453"/>
      <use xlink:href="#DejaVuSans-72" x="597.84375"/>
      <use xlink:href="#DejaVuSans-79" x="638.957031"/>
      <use xlink:href="#DejaVuSans-20" x="698.136719"/>
      <use xlink:href="#DejaVuSans-65" x="729.923828"/>
      <use xlink:href="#DejaVuSans-6c" x="791.447266"/>
      <use xlink:href="#DejaVuSans-65" x="819.230469"/>
      <use xlink:href="#DejaVuSans-63" x="880.753906"/>
      <use xlink:href="#DejaVuSans-74" x="935.734375"/>
      <use xlink:href="#DejaVuSans-69" x="974.943359"/>
      <use xlink:href="#DejaVuSans-6f" x="1002.726562"/>
      <use xlink:href="#DejaVuSans-6e" x="1063.908203"/>
      <use xlink:href="#DejaVuSans-20" x="1127.287109"/>
      <use xlink:href="#DejaVuSans-61" x="1159.074219"/>
      <use xlink:href="#DejaVuSans-6e" x="1220.353516"/>
      <use xlink:href="#DejaVuSans-64" x="1283.732422"/>
      <use xlink:href="#DejaVuSans-20" x="1347.208984"/>
      <use xlink:href="#DejaVuSans-46" x="1378.996094"/>
      <use xlink:href="#DejaVuSans-6f" x="1432.890625"/>
      <use xlink:href="#DejaVuSans-73" x="1494.072266"/>
      <use xlink:href="#DejaVuSans-65" x="1546.171875"/>
      <use xlink:href="#DejaVuSans-6e" x="1607.695312"/>
      <use xlink:href="#DejaVuSans-20" x="1671.074219"/>
      <use xlink:href="#DejaVuSans-57" x="1702.861328"/>
      <use xlink:href="#DejaVuSans-69" x="1799.488281"/>
      <use xlink:href="#DejaVuSans-6e" x="1827.271484"/>
      <use xlink:href="#DejaVuSans-64" x="1890.650391"/>
      <use xlink:href="#DejaVuSans-20" x="1954.126953"/>
      <use xlink:href="#DejaVuSans-63" x="1985.914062"/>
      <use xlink:href="#DejaVuSans-6f" x="2040.894531"/>
      <use xlink:href="#DejaVuSans-6e" x="2102.076172"/>
      <use xlink:href="#DejaVuSans-74" x="2165.455078"/>
      <use xlink:href="#DejaVuSans-72" x="2204.664062"/>
      <use xlink:href="#DejaVuSans-6f" x="2243.527344"/>
      <use xlink:href="#DejaVuSans-76" x="2304.708984"/>
      <use xlink:href="#DejaVuSans-65" x="2363.888672"/>
      <use xlink:href="#DejaVuSans-72" x="2425.412109"/>
      <use xlink:href="#DejaVuSans-73" x="2466.525391"/>
      <use xlink:href="#DejaVuSans-79" x="2518.625"/>
     </g>
    </g>
   </g>
  </g>
  <g id="axes_2">
   <g id="matplotlib.axis_3">
    <g id="ytick_7">
     <g id="line2d_31">
      <defs>
       <path id="m938a2725e4" d="M 0 0 
L 3.5 0 
" style="stroke: #000000; stroke-width: 0.8"/>
      </defs>
      <g>
       <use xlink:href="#m938a2725e4" x="819.071395" y="353.829329" style="stroke: #000000; stroke-width: 0.8"/>
      </g>
     </g>
     <g id="text_21">
      <!-- 1000 -->
      <g transform="translate(826.071395 357.628548)scale(0.1 -0.1)">
       <use xlink:href="#DejaVuSans-31"/>
       <use xlink:href="#DejaVuSans-30" x="63.623047"/>
       <use xlink:href="#DejaVuSans-30" x="127.246094"/>
       <use xlink:href="#DejaVuSans-30" x="190.869141"/>
      </g>
     </g>
    </g>
    <g id="ytick_8">
     <g id="line2d_32">
      <g>
       <use xlink:href="#m938a2725e4" x="819.071395" y="281.041392" style="stroke: #000000; stroke-width: 0.8"/>
      </g>
     </g>
     <g id="text_22">
      <!-- 2000 -->
      <g transform="translate(826.071395 284.840611)scale(0.1 -0.1)">
       <use xlink:href="#DejaVuSans-32"/>
       <use xlink:href="#DejaVuSans-30" x="63.623047"/>
       <use xlink:href="#DejaVuSans-30" x="127.246094"/>
       <use xlink:href="#DejaVuSans-30" x="190.869141"/>
      </g>
     </g>
    </g>
    <g id="ytick_9">
     <g id="line2d_33">
      <g>
       <use xlink:href="#m938a2725e4" x="819.071395" y="208.253455" style="stroke: #000000; stroke-width: 0.8"/>
      </g>
     </g>
     <g id="text_23">
      <!-- 3000 -->
      <g transform="translate(826.071395 212.052673)scale(0.1 -0.1)">
       <use xlink:href="#DejaVuSans-33"/>
       <use xlink:href="#DejaVuSans-30" x="63.623047"/>
       <use xlink:href="#DejaVuSans-30" x="127.246094"/>
       <use xlink:href="#DejaVuSans-30" x="190.869141"/>
      </g>
     </g>
    </g>
    <g id="ytick_10">
     <g id="line2d_34">
      <g>
       <use xlink:href="#m938a2725e4" x="819.071395" y="135.465518" style="stroke: #000000; stroke-width: 0.8"/>
      </g>
     </g>
     <g id="text_24">
      <!-- 4000 -->
      <g transform="translate(826.071395 139.264736)scale(0.1 -0.1)">
       <defs>
        <path id="DejaVuSans-34" d="M 2419 4116 
L 825 1625 
L 2419 1625 
L 2419 4116 
z
M 2253 4666 
L 3047 4666 
L 3047 1625 
L 3713 1625 
L 3713 1100 
L 3047 1100 
L 3047 0 
L 2419 0 
L 2419 1100 
L 313 1100 
L 313 1709 
L 2253 4666 
z
" transform="scale(0.015625)"/>
       </defs>
       <use xlink:href="#DejaVuSans-34"/>
       <use xlink:href="#DejaVuSans-30" x="63.623047"/>
       <use xlink:href="#DejaVuSans-30" x="127.246094"/>
       <use xlink:href="#DejaVuSans-30" x="190.869141"/>
      </g>
     </g>
    </g>
    <g id="ytick_11">
     <g id="line2d_35">
      <g>
       <use xlink:href="#m938a2725e4" x="819.071395" y="62.67758" style="stroke: #000000; stroke-width: 0.8"/>
      </g>
     </g>
     <g id="text_25">
      <!-- 5000 -->
      <g transform="translate(826.071395 66.476799)scale(0.1 -0.1)">
       <use xlink:href="#DejaVuSans-35"/>
       <use xlink:href="#DejaVuSans-30" x="63.623047"/>
       <use xlink:href="#DejaVuSans-30" x="127.246094"/>
       <use xlink:href="#DejaVuSans-30" x="190.869141"/>
      </g>
     </g>
    </g>
    <g id="text_26">
     <!-- Installed windpower capacity [MW] -->
     <g transform="translate(863.119833 300.193979)rotate(-90)scale(0.1 -0.1)">
      <defs>
       <path id="DejaVuSans-49" d="M 628 4666 
L 1259 4666 
L 1259 0 
L 628 0 
L 628 4666 
z
" transform="scale(0.015625)"/>
       <path id="DejaVuSans-5b" d="M 550 4863 
L 1875 4863 
L 1875 4416 
L 1125 4416 
L 1125 -397 
L 1875 -397 
L 1875 -844 
L 550 -844 
L 550 4863 
z
" transform="scale(0.015625)"/>
       <path id="DejaVuSans-5d" d="M 1947 4863 
L 1947 -844 
L 622 -844 
L 622 -397 
L 1369 -397 
L 1369 4416 
L 622 4416 
L 622 4863 
L 1947 4863 
z
" transform="scale(0.015625)"/>
      </defs>
      <use xlink:href="#DejaVuSans-49"/>
      <use xlink:href="#DejaVuSans-6e" x="29.492188"/>
      <use xlink:href="#DejaVuSans-73" x="92.871094"/>
      <use xlink:href="#DejaVuSans-74" x="144.970703"/>
      <use xlink:href="#DejaVuSans-61" x="184.179688"/>
      <use xlink:href="#DejaVuSans-6c" x="245.458984"/>
      <use xlink:href="#DejaVuSans-6c" x="273.242188"/>
      <use xlink:href="#DejaVuSans-65" x="301.025391"/>
      <use xlink:href="#DejaVuSans-64" x="362.548828"/>
      <use xlink:href="#DejaVuSans-20" x="426.025391"/>
      <use xlink:href="#DejaVuSans-77" x="457.8125"/>
      <use xlink:href="#DejaVuSans-69" x="539.599609"/>
      <use xlink:href="#DejaVuSans-6e" x="567.382812"/>
      <use xlink:href="#DejaVuSans-64" x="630.761719"/>
      <use xlink:href="#DejaVuSans-70" x="694.238281"/>
      <use xlink:href="#DejaVuSans-6f" x="757.714844"/>
      <use xlink:href="#DejaVuSans-77" x="818.896484"/>
      <use xlink:href="#DejaVuSans-65" x="900.683594"/>
      <use xlink:href="#DejaVuSans-72" x="962.207031"/>
      <use xlink:href="#DejaVuSans-20" x="1003.320312"/>
      <use xlink:href="#DejaVuSans-63" x="1035.107422"/>
      <use xlink:href="#DejaVuSans-61" x="1090.087891"/>
      <use xlink:href="#DejaVuSans-70" x="1151.367188"/>
      <use xlink:href="#DejaVuSans-61" x="1214.84375"/>
      <use xlink:href="#DejaVuSans-63" x="1276.123047"/>
      <use xlink:href="#DejaVuSans-69" x="1331.103516"/>
      <use xlink:href="#DejaVuSans-74" x="1358.886719"/>
      <use xlink:href="#DejaVuSans-79" x="1398.095703"/>
      <use xlink:href="#DejaVuSans-20" x="1457.275391"/>
      <use xlink:href="#DejaVuSans-5b" x="1489.0625"/>
      <use xlink:href="#DejaVuSans-4d" x="1528.076172"/>
      <use xlink:href="#DejaVuSans-57" x="1614.355469"/>
      <use xlink:href="#DejaVuSans-5d" x="1713.232422"/>
     </g>
    </g>
   </g>
   <g id="line2d_36">
    <path d="M 53.328125 385.546672 
L 131.865896 385.546672 
L 136.774507 374.628482 
L 166.226171 374.628482 
L 171.134782 374.512021 
L 176.043393 374.512021 
L 180.952003 370.144745 
L 190.769225 370.144745 
L 195.677835 365.049589 
L 200.586446 365.049589 
L 205.495057 359.859809 
L 210.403668 359.859809 
L 215.312278 352.79938 
L 323.301714 352.79938 
L 328.210324 352.624689 
L 392.022264 352.624689 
L 396.930874 351.605657 
L 401.839485 351.605657 
L 406.748096 337.04807 
L 495.103088 337.04807 
L 500.011699 320.306844 
L 509.828921 320.306844 
L 514.737531 318.472588 
L 524.554753 318.472588 
L 529.463363 299.140112 
L 539.280585 299.140112 
L 544.189196 298.630597 
L 558.915028 298.630597 
L 563.823638 297.902717 
L 568.732249 280.651976 
L 578.54947 280.651976 
L 588.366692 259.68905 
L 608.001135 259.68905 
L 612.909745 238.427694 
L 617.818356 230.421021 
L 622.726967 215.135554 
L 632.544188 211.467042 
L 637.452799 192.607688 
L 642.36141 192.607688 
L 647.27002 190.424049 
L 657.087242 190.424049 
L 666.904463 174.629067 
L 671.813074 152.064807 
L 676.721685 135.51283 
L 681.630295 121.974273 
L 686.538906 112.802993 
L 725.807792 112.802993 
L 730.716402 103.326004 
L 735.625013 74.210829 
L 740.533624 60.541254 
L 745.442234 53.022261 
L 750.350845 39.614722 
L 819.071395 39.614722 
L 819.071395 39.614722 
" clip-path="url(#p95a0667064)" style="fill: none; stroke: #009e73; stroke-width: 1.5; stroke-linecap: square"/>
   </g>
   <g id="patch_8">
    <path d="M 53.328125 402.84327 
L 53.328125 22.318125 
" style="fill: none; stroke: #000000; stroke-width: 0.8; stroke-linejoin: miter; stroke-linecap: square"/>
   </g>
   <g id="patch_9">
    <path d="M 819.071395 402.84327 
L 819.071395 22.318125 
" style="fill: none; stroke: #000000; stroke-width: 0.8; stroke-linejoin: miter; stroke-linecap: square"/>
   </g>
   <g id="patch_10">
    <path d="M 53.328125 402.84327 
L 819.071395 402.84327 
" style="fill: none; stroke: #000000; stroke-width: 0.8; stroke-linejoin: miter; stroke-linecap: square"/>
   </g>
   <g id="patch_11">
    <path d="M 53.328125 22.318125 
L 819.071395 22.318125 
" style="fill: none; stroke: #000000; stroke-width: 0.8; stroke-linejoin: miter; stroke-linecap: square"/>
   </g>
   <g id="text_27">
    <!-- NO -->
    <g transform="translate(426.987885 16.318125)scale(0.12 -0.12)">
     <defs>
      <path id="DejaVuSans-4f" d="M 2522 4238 
Q 1834 4238 1429 3725 
Q 1025 3213 1025 2328 
Q 1025 1447 1429 934 
Q 1834 422 2522 422 
Q 3209 422 3611 934 
Q 4013 1447 4013 2328 
Q 4013 3213 3611 3725 
Q 3209 4238 2522 4238 
z
M 2522 4750 
Q 3503 4750 4090 4092 
Q 4678 3434 4678 2328 
Q 4678 1225 4090 567 
Q 3503 -91 2522 -91 
Q 1538 -91 948 565 
Q 359 1222 359 2328 
Q 359 3434 948 4092 
Q 1538 4750 2522 4750 
z
" transform="scale(0.015625)"/>
     </defs>
     <use xlink:href="#DejaVuSans-4e"/>
     <use xlink:href="#DejaVuSans-4f" x="74.804688"/>
    </g>
   </g>
   <g id="legend_2">
    <g id="patch_12">
     <path d="M 313.759135 44.99625 
L 558.640385 44.99625 
Q 560.640385 44.99625 560.640385 42.99625 
L 560.640385 29.318125 
Q 560.640385 27.318125 558.640385 27.318125 
L 313.759135 27.318125 
Q 311.759135 27.318125 311.759135 29.318125 
L 311.759135 42.99625 
Q 311.759135 44.99625 313.759135 44.99625 
L 313.759135 44.99625 
z
" style="fill: none; opacity: 0"/>
    </g>
    <g id="line2d_37">
     <path d="M 315.759135 35.416562 
L 325.759135 35.416562 
L 335.759135 35.416562 
" style="fill: none; stroke: #009e73; stroke-width: 1.5; stroke-linecap: square"/>
    </g>
    <g id="text_28">
     <!-- Installed wind power capacity [MW] (right) -->
     <g transform="translate(343.759135 38.916562)scale(0.1 -0.1)">
      <use xlink:href="#DejaVuSans-49"/>
      <use xlink:href="#DejaVuSans-6e" x="29.492188"/>
      <use xlink:href="#DejaVuSans-73" x="92.871094"/>
      <use xlink:href="#DejaVuSans-74" x="144.970703"/>
      <use xlink:href="#DejaVuSans-61" x="184.179688"/>
      <use xlink:href="#DejaVuSans-6c" x="245.458984"/>
      <use xlink:href="#DejaVuSans-6c" x="273.242188"/>
      <use xlink:href="#DejaVuSans-65" x="301.025391"/>
      <use xlink:href="#DejaVuSans-64" x="362.548828"/>
      <use xlink:href="#DejaVuSans-20" x="426.025391"/>
      <use xlink:href="#DejaVuSans-77" x="457.8125"/>
      <use xlink:href="#DejaVuSans-69" x="539.599609"/>
      <use xlink:href="#DejaVuSans-6e" x="567.382812"/>
      <use xlink:href="#DejaVuSans-64" x="630.761719"/>
      <use xlink:href="#DejaVuSans-20" x="694.238281"/>
      <use xlink:href="#DejaVuSans-70" x="726.025391"/>
      <use xlink:href="#DejaVuSans-6f" x="789.501953"/>
      <use xlink:href="#DejaVuSans-77" x="850.683594"/>
      <use xlink:href="#DejaVuSans-65" x="932.470703"/>
      <use xlink:href="#DejaVuSans-72" x="993.994141"/>
      <use xlink:href="#DejaVuSans-20" x="1035.107422"/>
      <use xlink:href="#DejaVuSans-63" x="1066.894531"/>
      <use xlink:href="#DejaVuSans-61" x="1121.875"/>
      <use xlink:href="#DejaVuSans-70" x="1183.154297"/>
      <use xlink:href="#DejaVuSans-61" x="1246.630859"/>
      <use xlink:href="#DejaVuSans-63" x="1307.910156"/>
      <use xlink:href="#DejaVuSans-69" x="1362.890625"/>
      <use xlink:href="#DejaVuSans-74" x="1390.673828"/>
      <use xlink:href="#DejaVuSans-79" x="1429.882812"/>
      <use xlink:href="#DejaVuSans-20" x="1489.0625"/>
      <use xlink:href="#DejaVuSans-5b" x="1520.849609"/>
      <use xlink:href="#DejaVuSans-4d" x="1559.863281"/>
      <use xlink:href="#DejaVuSans-57" x="1646.142578"/>
      <use xlink:href="#DejaVuSans-5d" x="1745.019531"/>
      <use xlink:href="#DejaVuSans-20" x="1784.033203"/>
      <use xlink:href="#DejaVuSans-28" x="1815.820312"/>
      <use xlink:href="#DejaVuSans-72" x="1854.833984"/>
      <use xlink:href="#DejaVuSans-69" x="1895.947266"/>
      <use xlink:href="#DejaVuSans-67" x="1923.730469"/>
      <use xlink:href="#DejaVuSans-68" x="1987.207031"/>
      <use xlink:href="#DejaVuSans-74" x="2050.585938"/>
      <use xlink:href="#DejaVuSans-29" x="2089.794922"/>
     </g>
    </g>
   </g>
  </g>
 </g>
 <defs>
  <clipPath id="p95a0667064">
   <rect x="53.328125" y="22.318125" width="765.74327" height="380.525145"/>
  </clipPath>
 </defs>
</svg>
